<?xml version="1.0" encoding="UTF-8"?>
<svg version="1.1" xmlns="http://www.w3.org/2000/svg" width="500" height="500">
<path d="M0 0 C1.47726563 0.02707031 1.47726563 0.02707031 2.984375 0.0546875 C4.10585937 0.08949219 4.10585937 0.08949219 5.25 0.125 C7.25117003 4.33909001 9.24477704 8.55664181 11.23144531 12.77758789 C11.90841041 14.21313683 12.58743558 15.64771616 13.26855469 17.08129883 C14.24696789 19.14152897 15.21793066 21.2051272 16.1875 23.26953125 C16.49373291 23.91026077 16.79996582 24.5509903 17.11547852 25.21113586 C18.44021902 28.04879456 19.25 29.9512216 19.25 33.125 C15.1972484 34.10748524 11.41138263 34.20659574 7.25 34.125 C6.755 32.145 6.755 32.145 6.25 30.125 C2.29 30.125 -1.67 30.125 -5.75 30.125 C-5.75 31.775 -5.75 33.425 -5.75 35.125 C-6.84699219 35.31835938 -7.94398438 35.51171875 -9.07421875 35.7109375 C-10.52869582 35.97368175 -11.98312017 36.23671801 -13.4375 36.5 C-14.15873047 36.62632812 -14.87996094 36.75265625 -15.62304688 36.8828125 C-19.56720533 37.60320674 -23.04030228 38.55656163 -26.75 40.125 C-32.07108634 40.125 -35.81165402 36.32063061 -39.75 33.125 C-41.98551759 36.47827639 -41.92283528 37.03243657 -41.375 40.8125 C-41.26414063 41.62074219 -41.15328125 42.42898437 -41.0390625 43.26171875 C-40.94367188 43.87660156 -40.84828125 44.49148437 -40.75 45.125 C-42.2062545 45.79619549 -43.66507867 46.46181807 -45.125 47.125 C-45.93710938 47.49625 -46.74921875 47.8675 -47.5859375 48.25 C-49.75 49.125 -49.75 49.125 -51.75 49.125 C-53.4632732 44.74840717 -55.17215493 40.37013541 -56.87695312 35.99023438 C-57.4577731 34.49985291 -58.03979968 33.00994109 -58.62304688 31.52050781 C-59.46019528 29.38207769 -60.29301894 27.24200743 -61.125 25.1015625 C-61.38748535 24.43379791 -61.6499707 23.76603333 -61.92041016 23.07803345 C-63.75 18.35274341 -63.75 18.35274341 -63.75 16.125 C-62.50336669 15.61666409 -61.25250613 15.11868855 -60 14.625 C-59.30390625 14.3465625 -58.6078125 14.068125 -57.890625 13.78125 C-55.75 13.125 -55.75 13.125 -51.75 13.125 C-50.43 16.425 -49.11 19.725 -47.75 23.125 C-47.38261719 21.57039063 -47.38261719 21.57039063 -47.0078125 19.984375 C-44.16495108 9.24964609 -44.16495108 9.24964609 -40.33203125 6.203125 C-36.14423608 4.49584071 -33.12194794 3.67104964 -28.75 5.125 C-29.32621094 6.57132813 -29.32621094 6.57132813 -29.9140625 8.046875 C-30.40184365 9.32261031 -30.88877879 10.59866933 -31.375 11.875 C-31.75785156 12.82632813 -31.75785156 12.82632813 -32.1484375 13.796875 C-33.1323529 16.4206494 -33.88684508 18.46032389 -33.3125 21.25 C-30.94740669 24.08811198 -28.0828536 26.2008512 -25.125 28.375 C-24.51398438 28.83390625 -23.90296875 29.2928125 -23.2734375 29.765625 C-21.7709208 30.89251252 -20.26115591 32.00972437 -18.75 33.125 C-17.04657067 28.29899292 -15.53853967 23.46723653 -14.28515625 18.50390625 C-14.04216797 17.54935547 -13.79917969 16.59480469 -13.54882812 15.61132812 C-13.05169362 13.63729537 -12.56495445 11.66061969 -12.08789062 9.68164062 C-11.84361328 8.73611328 -11.59933594 7.79058594 -11.34765625 6.81640625 C-11.03066772 5.53552124 -11.03066772 5.53552124 -10.70727539 4.22875977 C-9.75 2.125 -9.75 2.125 -8.00952148 0.83959961 C-5.23658948 -0.03737197 -2.90386478 -0.06913964 0 0 Z M-1.75 12.125 C-2.41 15.425 -3.07 18.725 -3.75 22.125 C-1.77 21.795 0.21 21.465 2.25 21.125 C1.26 18.155 0.27 15.185 -0.75 12.125 C-1.08 12.125 -1.41 12.125 -1.75 12.125 Z " fill="#FFFFFF" transform="translate(237.75,138.875)"/>
<path d="M0 0 C0.84101257 -0.00570007 1.68202515 -0.01140015 2.54852295 -0.01727295 C4.32709502 -0.02670692 6.10568444 -0.03325056 7.88427734 -0.03710938 C10.58592801 -0.04679098 13.28680973 -0.07781921 15.98828125 -0.109375 C17.72134968 -0.11590823 19.45442352 -0.12115744 21.1875 -0.125 C21.98673889 -0.1373468 22.78597778 -0.1496936 23.60943604 -0.16241455 C30.781061 -0.13436436 37.52183372 1.5511414 43.0390625 6.48046875 C46.68581532 11.23851016 48.359375 17.30227912 48.359375 23.203125 C23.609375 23.203125 -1.140625 23.203125 -26.640625 23.203125 C-22.83714562 7.98920747 -22.83714562 7.98920747 -18.73828125 4.65625 C-18.06667969 4.25921875 -17.39507812 3.8621875 -16.703125 3.453125 C-16.03410156 3.04578125 -15.36507812 2.6384375 -14.67578125 2.21875 C-9.965041 -0.13209926 -5.16863874 0.02720811 0 0 Z " fill="#FFFFFF" transform="translate(263.640625,275.796875)"/>
<path d="M0 0 C0.67667998 1.24460783 1.34094719 2.49596896 2 3.75 C2.37125 4.44609375 2.7425 5.1421875 3.125 5.859375 C4 8 4 8 4 12 C2.54492188 13.31762695 2.54492188 13.31762695 0.46875 14.48828125 C-0.31056885 14.93985596 -1.0898877 15.39143066 -1.89282227 15.85668945 C-2.75319092 16.33710693 -3.61355957 16.81752441 -4.5 17.3125 C-6.33342769 18.37258852 -8.16539566 19.43520459 -9.99609375 20.5 C-10.97046387 21.06332031 -11.94483398 21.62664062 -12.94873047 22.20703125 C-18.21868521 25.30373053 -23.38776391 28.5600061 -28.5625 31.8125 C-29.53574219 32.42198486 -30.50898438 33.03146973 -31.51171875 33.65942383 C-32.45789063 34.25263428 -33.4040625 34.84584473 -34.37890625 35.45703125 C-35.76638062 36.32581909 -35.76638062 36.32581909 -37.18188477 37.2121582 C-39.13396625 38.45057912 -41.07387303 39.70832152 -43.00366211 40.98120117 C-43.97182861 41.61646729 -44.93999512 42.2517334 -45.9375 42.90625 C-46.80375 43.48310547 -47.67 44.05996094 -48.5625 44.65429688 C-52.41797584 46.78284083 -54.69006815 46.83174123 -59 46 C-61.5 44.5 -61.5 44.5 -63 42 C-63.60392884 39.19316882 -63.86605819 36.75417262 -63 34 C-59.75135625 31.14401778 -56.41096044 28.98973133 -52.59765625 26.96875 C-51.55262939 26.41106934 -50.50760254 25.85338867 -49.4309082 25.27880859 C-48.3193335 24.69180176 -47.20775879 24.10479492 -46.0625 23.5 C-44.31560552 22.56869923 -42.56871592 21.63738893 -40.8223114 20.70516968 C-39.63555542 20.07192717 -38.44847046 19.43930084 -37.26106262 18.80728149 C-31.42468157 15.70005261 -25.61558988 12.54385478 -19.8125 9.375 C-18.92377197 8.89095703 -18.03504395 8.40691406 -17.11938477 7.90820312 C-16.28205811 7.45123047 -15.44473145 6.99425781 -14.58203125 6.5234375 C-13.79908691 6.09643555 -13.01614258 5.66943359 -12.20947266 5.22949219 C-10.14009973 4.07796047 -8.10805818 2.87681964 -6.07421875 1.6640625 C-3 0 -3 0 0 0 Z " fill="#FFFFFF" transform="translate(245,234)"/>
<path d="M0 0 C3.875 3.75 3.875 3.75 5 6 C6.75694763 6.95833507 8.51632172 7.91416403 10.30859375 8.8046875 C12.4451065 10.31455563 13.07994183 11.56429045 14 14 C14.34375 16.1484375 14.34375 16.1484375 14.5 18.375 C14.76851459 22.17448139 15.71835842 25.41347075 17 29 C13.42876206 31.20773109 9.84127178 33.38753603 6.25 35.5625 C5.23421875 36.19091797 4.2184375 36.81933594 3.171875 37.46679688 C2.1921875 38.05654297 1.2125 38.64628906 0.203125 39.25390625 C-0.69760742 39.80377197 -1.59833984 40.3536377 -2.52636719 40.92016602 C-5 42 -5 42 -7.27050781 41.82397461 C-9 41 -9 41 -9.875 38.5625 C-10.24625 37.716875 -10.6175 36.87125 -11 36 C-12.98248715 35.28293018 -14.98415349 34.61709587 -17 34 C-20.40149591 30.83309001 -20.51945962 27.48504353 -21 23 C-21.65188009 19.83372527 -22.78807411 16.99301536 -24 14 C-21.31294159 12.41591638 -18.62527171 10.832873 -15.9375 9.25 C-15.18533203 8.8065625 -14.43316406 8.363125 -13.65820312 7.90625 C-9.12422068 5.23689237 -4.57416406 2.59992326 0 0 Z " fill="#FFFFFF" transform="translate(269,207)"/>
<path d="M0 0 C2 7.625 2 7.625 2 11 C1.28972656 11.13277344 0.57945312 11.26554687 -0.15234375 11.40234375 C-1.07144531 11.57894531 -1.99054688 11.75554687 -2.9375 11.9375 C-3.85402344 12.11152344 -4.77054687 12.28554688 -5.71484375 12.46484375 C-7.95289844 12.77714988 -7.95289844 12.77714988 -9 14 C-8.07316406 14.41507812 -7.14632813 14.83015625 -6.19140625 15.2578125 C1.19165294 18.92636259 1.19165294 18.92636259 4 22 C5.41651771 26.75909189 5.42179551 31.07674745 5 36 C0.46667799 34.36096823 -2.96686526 31.99332501 -6.81640625 29.14453125 C-8.87938568 27.83730549 -8.87938568 27.83730549 -10.96484375 28.05078125 C-13.79782148 29.37211252 -15.72858093 31.23515703 -18 33.375 C-26.1465798 41 -26.1465798 41 -29 41 C-29.66 36.71 -30.32 32.42 -31 28 C-27.7 25.36 -24.4 22.72 -21 20 C-23.38333115 15.87340494 -23.38333115 15.87340494 -26.0078125 15.64453125 C-26.70648438 15.69996094 -27.40515625 15.75539063 -28.125 15.8125 C-29.40375 15.874375 -30.6825 15.93625 -32 16 C-33.73956658 14.26043342 -33.37190386 11.8063378 -33.5625 9.4375 C-33.68818359 7.91962891 -33.68818359 7.91962891 -33.81640625 6.37109375 C-33.87699219 5.58863281 -33.93757813 4.80617188 -34 4 C-29.64710244 3.3248677 -25.29250257 2.66140624 -20.9375 2 C-19.70837891 1.80921875 -18.47925781 1.6184375 -17.21289062 1.421875 C-16.01728516 1.24140625 -14.82167969 1.0609375 -13.58984375 0.875 C-11.94810181 0.62363281 -11.94810181 0.62363281 -10.27319336 0.3671875 C-6.82256319 -0.0199049 -3.46935691 -0.06143853 0 0 Z " fill="#FFFFFF" transform="translate(414,266)"/>
<path d="M0 0 C4.20696128 1.42777089 7.14972107 3.4882949 10.5625 6.3125 C11.49191406 7.07175781 12.42132813 7.83101562 13.37890625 8.61328125 C17.89950421 12.72965287 20.70414095 15.98223773 21.3125 22.1875 C20.77738178 28.7159423 18.29770907 33.14169125 13.375 37.4375 C9.70654882 40.37706677 7.18042548 41.42338313 2.3359375 41.3359375 C-6.41822184 40.07697813 -13.52525517 33.55174929 -20 28 C-18.71740872 24.44078975 -17.22668671 21.71328259 -14.8828125 18.75 C-13.97208984 17.58984375 -13.97208984 17.58984375 -13.04296875 16.40625 C-12.41003906 15.6121875 -11.77710938 14.818125 -11.125 14 C-10.49980469 13.2059375 -9.87460937 12.411875 -9.23046875 11.59375 C-6.17222468 7.71437063 -3.0916 3.85284824 0 0 Z M4 14 C2.43488963 15.93493796 0.92611144 17.88258591 -0.5625 19.875 C-0.98724609 20.43058594 -1.41199219 20.98617187 -1.84960938 21.55859375 C-4.2441164 24.46061674 -4.2441164 24.46061674 -5 28 C-1.42762392 30.38158405 -0.20126369 30.82377719 4 30 C6.51609163 27.64046519 8.53291707 25.12825465 10 22 C9.61481406 18.19016085 7.83519562 16.48079616 5 14 C4.67 14 4.34 14 4 14 Z " fill="#FFFFFF" transform="translate(339,164)"/>
<path d="M0 0 C5.64678899 4.94094037 5.64678899 4.94094037 6.34375 9.00390625 C6.93174672 18.63235251 2.93008623 26.44805215 -1 35 C-7.45902415 33.93144432 -13.24978156 31.15208984 -19.25 28.625 C-20.45914063 28.13 -21.66828125 27.635 -22.9140625 27.125 C-24.06132813 26.64289063 -25.20859375 26.16078125 -26.390625 25.6640625 C-27.44282227 25.22529785 -28.49501953 24.7865332 -29.57910156 24.33447266 C-32 23 -32 23 -33 20 C-32.05361023 17.30484654 -31.04252246 14.78382514 -29.875 12.1875 C-29.57851562 11.48818359 -29.28203125 10.78886719 -28.9765625 10.06835938 C-26.60308914 4.6928445 -23.86192846 -0.34309405 -18.625 -3.375 C-11.50777424 -5.06957756 -6.18025692 -3.59936312 0 0 Z M-18.875 10.375 C-20.13130643 12.83039586 -20.13130643 12.83039586 -20 15 C-15.05 16.98 -10.1 18.96 -5 21 C-4.34 18.69 -3.68 16.38 -3 14 C-6.52165215 10.22680126 -8.91172044 8.29832565 -14.0625 7.5625 C-17.19210583 7.68578824 -17.19210583 7.68578824 -18.875 10.375 Z " fill="#FFFFFF" transform="translate(122,234)"/>
<path d="M0 0 C4.73952218 4.30865653 8.7625033 8.4935799 9.875 15 C10.1339609 20.78678001 8.01131516 24.97600681 4.203125 29.2265625 C-0.27488314 33.39645081 -5.11214791 36.08863459 -11.25390625 36.69921875 C-17.47097842 36.4680556 -21.16530025 32.88587577 -25.25 28.5 C-28.63154385 24.35488174 -29.52350913 19.77607932 -29.25 14.5 C-27.27623866 7.31080307 -22.16060105 2.82522224 -15.9375 -0.875 C-10.36458335 -2.17102713 -5.24940168 -2.42280078 0 0 Z M-15.4375 10.3125 C-17.43654008 12.45666241 -17.43654008 12.45666241 -18.25 15.5 C-15.39599408 21.54076591 -15.39599408 21.54076591 -10.25 25.5 C-7.15351124 25.66448881 -7.15351124 25.66448881 -4.25 24.5 C-1.98948997 22.48257918 -1.98948997 22.48257918 -1.25 19.5 C-2.69461186 14.35357023 -4.67161583 11.29169767 -9.25 8.5 C-13.21012388 8.07465476 -13.21012388 8.07465476 -15.4375 10.3125 Z " fill="#FFFFFF" transform="translate(168.25,169.5)"/>
<path d="M0 0 C2.44201297 0.94868309 3.32694266 1.93430416 4.91870117 3.99707031 C5.6844043 4.97353516 5.6844043 4.97353516 6.46557617 5.96972656 C7.24674805 6.99646484 7.24674805 6.99646484 8.04370117 8.04394531 C8.82487305 9.04748047 8.82487305 9.04748047 9.62182617 10.07128906 C10.63741954 11.37668559 11.64801482 12.6859891 12.65307617 13.99951172 C13.87418435 15.57520433 15.14292725 17.11373979 16.41870117 18.64550781 C18.04370117 20.79394531 18.04370117 20.79394531 18.04370117 22.91894531 C16.7518179 25.34122645 15.40006983 26.4078461 13.04370117 27.79394531 C12.05370117 27.79394531 11.06370117 27.79394531 10.04370117 27.79394531 C8.39918294 25.82404112 6.93320162 23.89733258 5.48120117 21.79394531 C4.04947425 19.74003012 2.59089036 17.76683171 1.04370117 15.79394531 C0.38370117 15.79394531 -0.27629883 15.79394531 -0.95629883 15.79394531 C0.51188785 18.90136954 2.24395117 21.69866271 4.16870117 24.54394531 C4.7075293 25.34316406 5.24635742 26.14238281 5.80151367 26.96582031 C6.21143555 27.56910156 6.62135742 28.17238281 7.04370117 28.79394531 C1.29370117 33.79394531 1.29370117 33.79394531 -0.95629883 33.79394531 C-3.08775493 31.00630846 -5.01959422 28.1077211 -6.98364258 25.20019531 C-7.96010742 24.00910156 -7.96010742 24.00910156 -8.95629883 22.79394531 C-9.94629883 22.79394531 -10.93629883 22.79394531 -11.95629883 22.79394531 C-9.43577664 27.54416021 -6.80984834 31.28392777 -3.03051758 35.11816406 C-1.95629883 36.79394531 -1.95629883 36.79394531 -2.17114258 38.89160156 C-3.23440685 41.46776922 -4.57868955 42.39535162 -6.95629883 43.79394531 C-7.94629883 43.79394531 -8.93629883 43.79394531 -9.95629883 43.79394531 C-11.3190918 42.42041016 -11.3190918 42.42041016 -12.69848633 40.50488281 C-13.20766602 39.81007812 -13.7168457 39.11527344 -14.24145508 38.39941406 C-15.02842773 37.29533203 -15.02842773 37.29533203 -15.83129883 36.16894531 C-16.86882494 34.73814247 -17.90786856 33.30843869 -18.94848633 31.87988281 C-19.44960938 31.18991211 -19.95073242 30.49994141 -20.46704102 29.7890625 C-22.52687422 27.02956136 -24.71902633 24.41097625 -26.95629883 21.79394531 C-25.53672876 18.41239404 -23.90627896 16.68728621 -20.99926758 14.48144531 C-20.21616211 13.88074219 -19.43305664 13.28003906 -18.6262207 12.66113281 C-17.80702148 12.04496094 -16.98782227 11.42878906 -16.14379883 10.79394531 C-14.53299144 9.56494941 -12.92231095 8.33578718 -11.31176758 7.10644531 C-10.5517041 6.53539062 -9.79164063 5.96433594 -9.00854492 5.37597656 C-7.32965882 4.0817603 -5.71936002 2.6990064 -4.13208008 1.29394531 C-1.95629883 -0.20605469 -1.95629883 -0.20605469 0 0 Z " fill="#FFFFFF" transform="translate(373.956298828125,193.2060546875)"/>
<path d="M0 0 C6.51470776 2.05338861 12.78730029 4.49534683 19.0625 7.1875 C19.92810547 7.55552734 20.79371094 7.92355469 21.68554688 8.30273438 C23.79170883 9.19872592 25.89647192 10.09784655 28 11 C27.44271087 14.34373475 26.64826111 17.03312999 25 20 C19.27789404 18.13236819 13.62338249 16.14710968 8 14 C7.67 14.99 7.34 15.98 7 17 C7.639375 17.0825 8.27875 17.165 8.9375 17.25 C13.20541517 18.29520372 17.03107667 20.14091826 21 22 C20.01 24.64 19.02 27.28 18 30 C14.82163518 29.51842957 12.35511229 28.72203116 9.375 27.4375 C6.15138512 25.80406897 6.15138512 25.80406897 3 26 C3 26.66 3 27.32 3 28 C4.49853516 28.58007812 4.49853516 28.58007812 6.02734375 29.171875 C7.33105411 29.69711083 8.63442215 30.2231969 9.9375 30.75 C10.59685547 31.00265625 11.25621094 31.2553125 11.93554688 31.515625 C16.74913495 33.49043036 16.74913495 33.49043036 18 36.03125 C18 38.68637246 17.12352621 40.62076802 16 43 C9.80701205 42.3986366 4.37803697 39.91911252 -1.3125 37.5625 C-2.32634766 37.15451172 -3.34019531 36.74652344 -4.38476562 36.32617188 C-5.82819336 35.73352539 -5.82819336 35.73352539 -7.30078125 35.12890625 C-8.17903564 34.76869385 -9.05729004 34.40848145 -9.9621582 34.03735352 C-12 33 -12 33 -13 31 C-12.16129201 28.61338938 -11.25826898 26.33995069 -10.25390625 24.0234375 C-9.96394272 23.33819 -9.67397919 22.6529425 -9.37522888 21.94692993 C-8.44492538 19.75311067 -7.50386693 17.56409162 -6.5625 15.375 C-5.93092835 13.89092792 -5.30005973 12.40655644 -4.66992188 10.921875 C-3.12142587 7.27772228 -1.56326719 3.63783922 0 0 Z " fill="#FFFFFF" transform="translate(301,146)"/>
<path d="M0 0 C5.78819818 3.08703903 8.0091949 9.02758471 10 15 C10.3686858 19.97725826 10.16456308 23.04429615 7 27 C5.68770535 27.70718101 4.35603679 28.38081791 3 29 C-0.0619429 23.82229398 -1.26622503 21.04974181 0 15 C-1.31318262 13.10041919 -1.31318262 13.10041919 -3 12 C-2.7525 13.3921875 -2.7525 13.3921875 -2.5 14.8125 C-0.69016987 28.2765393 -0.69016987 28.2765393 -4.375 33.125 C-8.50448238 36.07463027 -10.7168486 36.32173466 -15.6796875 35.69140625 C-19.84818316 34.44927875 -21.81725039 31.61692804 -24 28 C-26.867125 22.64586127 -28.04635415 17.03665854 -27 11 C-25.23759159 7.97872845 -24.25488284 6.36638915 -20.859375 5.375 C-20.24578125 5.25125 -19.6321875 5.1275 -19 5 C-18.27273948 6.5747294 -17.56879578 8.16024279 -16.875 9.75 C-16.48054688 10.63171875 -16.08609375 11.5134375 -15.6796875 12.421875 C-15 15 -15 15 -15.9296875 17.19140625 C-16.45949219 18.08666016 -16.45949219 18.08666016 -17 19 C-16.07451225 21.69933926 -15.57626463 22.71186768 -13 24 C-13.17917969 22.91460937 -13.35835938 21.82921875 -13.54296875 20.7109375 C-13.75880502 19.26577289 -13.97359343 17.8204515 -14.1875 16.375 C-14.30802734 15.66214844 -14.42855469 14.94929687 -14.55273438 14.21484375 C-15.2579944 9.25527327 -14.88795475 6.32219744 -12 2 C-7.95590048 -0.69606634 -4.74746558 -0.6530905 0 0 Z " fill="#FFFFFF" transform="translate(397,229)"/>
<path d="M0 0 C-0.11442461 1.60495567 -0.24194694 3.20898119 -0.375 4.8125 C-0.44460937 5.70582031 -0.51421875 6.59914063 -0.5859375 7.51953125 C-1 10 -1 10 -3 13 C-4.32 13 -5.64 13 -7 13 C-7.08086147 14.79093191 -7.13912702 16.58289628 -7.1875 18.375 C-7.22230469 19.37273437 -7.25710937 20.37046875 -7.29296875 21.3984375 C-7.19628906 22.25695312 -7.09960938 23.11546875 -7 24 C-5.515 24.99 -5.515 24.99 -4 26 C-4.33 29.96 -4.66 33.92 -5 38 C-10.79581811 35.68167276 -16.30616036 32.92489891 -21.85791016 30.08740234 C-23.12355891 29.44363623 -24.39215895 28.80564103 -25.66357422 28.17333984 C-27.50666846 27.25630429 -29.33985693 26.32174144 -31.171875 25.3828125 C-32.2659668 24.82996582 -33.36005859 24.27711914 -34.48730469 23.70751953 C-37 22 -37 22 -37.88549805 19.94970703 C-38.03474803 17.40832036 -37.61765783 15.23188208 -37.0625 12.75 C-36.86785156 11.85796875 -36.67320313 10.9659375 -36.47265625 10.046875 C-36.31667969 9.37140625 -36.16070312 8.6959375 -36 8 C-31.90500819 6.57388345 -27.84473341 5.43545462 -23.61328125 4.4921875 C-22.42798828 4.22792969 -21.24269531 3.96367187 -20.02148438 3.69140625 C-18.79751953 3.42199219 -17.57355469 3.15257812 -16.3125 2.875 C-14.45915039 2.45927734 -14.45915039 2.45927734 -12.56835938 2.03515625 C-11.38693359 1.77347656 -10.20550781 1.51179688 -8.98828125 1.2421875 C-7.91102783 1.0035498 -6.83377441 0.76491211 -5.72387695 0.51904297 C-3 0 -3 0 0 0 Z M-25 17 C-22.03 17.99 -19.06 18.98 -16 20 C-16 18.35 -16 16.7 -16 15 C-20.7897321 14.76571687 -20.7897321 14.76571687 -25 17 Z " fill="#FFFFFF" transform="translate(120,270)"/>
<path d="M0 0 C3.73349817 1.24449939 4.17113557 2.40796999 6.21484375 5.69921875 C6.81876953 6.66150391 7.42269531 7.62378906 8.04492188 8.61523438 C8.66947266 9.62908203 9.29402344 10.64292969 9.9375 11.6875 C11.17532944 13.67085496 12.41359887 15.65393541 13.65234375 17.63671875 C14.23040771 18.57112793 14.80847168 19.50553711 15.40405273 20.46826172 C16.70964915 22.5394006 18.06072618 24.54930805 19.46875 26.55078125 C21 29 21 29 20.5625 31.5 C20.046875 32.325 19.53125 33.15 19 34 C18.66484375 34.55429688 18.3296875 35.10859375 17.984375 35.6796875 C16.8125 37.375 16.8125 37.375 14 40 C9.15947974 39.69203631 4.78405535 38.43625774 0.19140625 36.93359375 C-1.04931641 36.53076172 -2.29003906 36.12792969 -3.56835938 35.71289062 C-4.85811421 35.2878857 -6.14782725 34.86275394 -7.4375 34.4375 C-8.75438546 34.0079364 -10.07144142 33.57889516 -11.38867188 33.15039062 C-14.59415995 32.10537803 -17.79782127 31.05510089 -21 30 C-21 26.39426104 -20.18292538 25.58663434 -18 22.8125 C-17.443125 22.09707031 -16.88625 21.38164062 -16.3125 20.64453125 C-15.879375 20.10183594 -15.44625 19.55914062 -15 19 C-8.14140139 20.92624472 -1.57683146 23.26814664 5 26 C4.65630371 25.54149658 4.31260742 25.08299316 3.95849609 24.6105957 C2.41140975 22.52474009 0.89328705 20.41939833 -0.625 18.3125 C-1.16640625 17.59126953 -1.7078125 16.87003906 -2.265625 16.12695312 C-3.69443431 14.12112466 -4.97079065 12.23799879 -6 10 C-5.2220897 5.83589194 -2.73047901 3.18555884 0 0 Z " fill="#FFFFFF" transform="translate(127,190)"/>
<path d="M0 0 C29.15078236 3.07539118 29.15078236 3.07539118 33 5 C32.67 7.97 32.34 10.94 32 14 C26.555 13.505 26.555 13.505 21 13 C20.01 20.92 19.02 28.84 18 37 C10.125 37 10.125 37 6 36 C6.51755404 27.55569721 7.4560881 19.31913693 9 11 C5.7 10.67 2.4 10.34 -1 10 C-1.125 2.25 -1.125 2.25 0 0 Z " fill="#FFFFFF" transform="translate(258,138)"/>
<path d="M0 0 C27.72 0 55.44 0 84 0 C84.495 2.475 84.495 2.475 85 5 C81.91797945 6.54101027 78.67542862 6.14729422 75.29321289 6.14526367 C74.10031395 6.15030159 74.10031395 6.15030159 72.88331604 6.15544128 C70.24641369 6.164964 67.60957474 6.16689503 64.97265625 6.16796875 C63.14424106 6.17118031 61.31582614 6.1745443 59.4874115 6.17805481 C55.65151371 6.18404931 51.81563847 6.18589437 47.97973633 6.18530273 C43.05882708 6.18520107 38.13806199 6.19885636 33.21718693 6.21607494 C29.44001091 6.22718035 25.66286992 6.2292224 21.88567924 6.22869301 C20.07115621 6.22987521 18.25663234 6.23431039 16.44212532 6.24202538 C13.90670733 6.25179631 11.37160445 6.24895882 8.83618164 6.24291992 C7.70693268 6.25134918 7.70693268 6.25134918 6.55487061 6.25994873 C2.81746573 6.23726842 1.19293321 6.12862214 -2 4 C-1.34 2.68 -0.68 1.36 0 0 Z " fill="#FFFFFF" transform="translate(233,302)"/>
<path d="M0 0 C3.23621787 1.61810893 3.92864738 3.85639088 5.25 7.125 C1.90910045 10.68710066 -1.27473831 13.25725575 -5.53125 15.640625 C-6.62050781 16.25164062 -7.70976562 16.86265625 -8.83203125 17.4921875 C-9.95996094 18.11351562 -11.08789062 18.73484375 -12.25 19.375 C-13.37792969 20.01179688 -14.50585938 20.64859375 -15.66796875 21.3046875 C-24.83761835 26.40496598 -24.83761835 26.40496598 -29.75 27.125 C-32.85315537 23.76324835 -32.897075 21.59853123 -32.75 17.125 C-32.08991943 16.75213867 -31.42983887 16.37927734 -30.74975586 15.99511719 C-27.72890376 14.28858866 -24.70820074 12.58179643 -21.6875 10.875 C-20.64916016 10.28847656 -19.61082031 9.70195312 -18.54101562 9.09765625 C-17.01831055 8.23720703 -17.01831055 8.23720703 -15.46484375 7.359375 C-14.47758301 6.8029834 -13.49032227 6.2465918 -12.47314453 5.67333984 C-10.19193156 4.37627577 -7.93309936 3.0487609 -5.67578125 1.7109375 C-2.75 0.125 -2.75 0.125 0 0 Z " fill="#FFFFFF" transform="translate(292.75,236.875)"/>
<path d="M0 0 C1.94123547 2.32948256 3.0505353 3.85606452 2.9140625 6.9453125 C1.53342729 10.04879164 -0.58913526 10.93179897 -3.5 12.625 C-4.06517334 12.9562085 -4.63034668 13.28741699 -5.21264648 13.62866211 C-6.45675216 14.35724976 -7.70356711 15.08122509 -8.95263672 15.80126953 C-11.15846361 17.09278039 -13.33129635 18.43076134 -15.50390625 19.77734375 C-17.02316498 20.70617506 -18.54269298 21.6345661 -20.0625 22.5625 C-20.78824219 23.01641113 -21.51398438 23.47032227 -22.26171875 23.93798828 C-22.95007813 24.35161621 -23.6384375 24.76524414 -24.34765625 25.19140625 C-24.95617432 25.56467041 -25.56469238 25.93793457 -26.19165039 26.32250977 C-28.5275523 27.19764515 -29.69736548 26.88246284 -32 26 C-33.8125 24.25 -33.8125 24.25 -35 22 C-34.86572266 19.55883789 -34.86572266 19.55883789 -34 17 C-31.97802734 15.30249023 -31.97802734 15.30249023 -29.3359375 13.80859375 C-28.37816406 13.25623047 -27.42039063 12.70386719 -26.43359375 12.13476562 C-25.42425781 11.57466797 -24.41492188 11.01457031 -23.375 10.4375 C-22.38886719 9.87353516 -21.40273437 9.30957031 -20.38671875 8.72851562 C-18.46692908 7.63277453 -16.54256513 6.54500125 -14.61328125 5.46606445 C-12.3798844 4.21311714 -10.16887534 2.92974454 -7.9609375 1.6328125 C-4.90829758 -0.05056941 -3.39858505 -0.84964626 0 0 Z " fill="#FFFFFF" transform="translate(269,193)"/>
</svg>
